<?xml version="1.0" encoding="UTF-8"?>
<svg width="80px" height="80px" viewBox="0 0 1392 1392" version="1.1" xmlns="http://www.w3.org/2000/svg" xmlns:xlink="http://www.w3.org/1999/xlink" style="background: #000000;">
    <!-- Generator: Sketch 49.3 (51167) - http://www.bohemiancoding.com/sketch -->
    <title>sticker</title>
    <desc>Created with Sketch.</desc>
    <defs></defs>
    <g id="sticker" stroke="none" stroke-width="1" fill="none" fill-rule="evenodd">
        <rect id="Rectangle" fill="#F70000" x="82.5939467" y="80" width="1221.2708" height="158"></rect>
        <rect id="Rectangle" fill="#F70000" x="82.5939467" y="1154" width="1221.2708" height="158"></rect>
        <path d="M475.022284,675 L324.988323,675 L260.78024,520.541016 L218.189955,520.541016 L218.189955,675 L82.9980624,675 L82.9980624,271.098633 L313.050137,271.098633 C363.814569,271.098633 403.2317,281.99745 431.30271,303.79541 C459.373721,325.593371 473.409016,354.344548 473.409016,390.049805 C473.409016,413.327265 468.246608,433.892001 457.921639,451.744629 C447.59667,469.597257 426.73194,485.329034 395.326825,498.94043 L475.022284,675 Z M218.189955,434.138672 L275.944963,434.138672 C292.938142,434.138672 306.597011,430.883822 316.921981,424.374023 C327.24695,417.864225 332.409357,408.296938 332.409357,395.671875 C332.409357,369.829949 315.093783,356.90918 280.462115,356.90918 L218.189955,356.90918 L218.189955,434.138672 Z M875.36735,271.098633 L875.36735,538.59082 C875.36735,589.288339 858.965952,625.732799 826.162664,647.925293 C793.359376,670.117787 750.608191,681.213867 697.907826,681.213867 C642.411115,681.213867 597.831578,670.56163 564.167875,649.256836 C530.504173,627.952042 513.672574,593.233639 513.672574,545.100586 L513.672574,271.098633 L651.123042,271.098633 L651.123042,530.601562 C651.123042,549.93369 655.586374,564.038042 664.51317,572.915039 C673.439966,581.792037 687.690362,586.230469 707.264783,586.230469 C723.612651,586.230469 737.002645,583.024934 747.435166,576.61377 C757.867687,570.202605 764.105596,562.953165 766.149079,554.865234 C768.192563,546.777303 769.214289,530.996211 769.214289,507.521484 L769.214289,271.098633 L875.36735,271.098633 Z M1303.46063,675 L1193.43573,675 L1072.76325,496.573242 C1057.2758,473.690315 1036.62451,444.129883 1036.62451,444.129883 C1036.62451,444.129883 1036.62604,461.262605 1036.62604,479.411133 L1036.62604,675 L926.923788,675 L926.923788,271.098633 L1054.69465,271.098633 L1157.29852,419.047852 C1177.73335,448.440577 1193.43786,472.573242 1193.43786,472.573242 L1193.43786,390.641602 L1193.43573,271.098633 L1303.46063,271.098633 L1303.46063,675 Z" id="RUN" fill="#FFFFFF"></path>
        <path d="M457.748385,1023.87402 L457.748385,1123 L83.5435919,1123 L83.5435919,719.098633 L218.735484,719.098633 L218.735484,1023.87402 L457.748385,1023.87402 Z M875.204177,1123 L765.179272,1123 L644.506796,944.573242 C629.019342,921.690315 608.372827,891.129883 608.372827,891.129883 L608.372827,927.411133 L608.369584,1123 L498.667332,1123 L498.667332,719.098633 L626.43819,719.098633 L729.04206,867.047852 C749.476896,896.440577 765.175262,918.573242 765.175262,918.573242 L765.175262,838.641602 L765.179272,719.098633 L875.204177,719.098633 L875.204177,1123 Z M927.270117,1123 L927.270117,719.098633 L1097.63126,719.098633 C1171.62687,719.098633 1227.0152,739.219525 1263.79791,779.461914 C1300.58061,819.704303 1314.61,866.258525 1314.61,919.125977 C1314.61,979.48956 1299.23623,1028.55889 1259.76473,1066.33545 C1220.29324,1104.11201 1169.04559,1123 1106.02026,1123 L927.270117,1123 Z M1062.46201,1030.08789 L1097.63126,1030.08789 C1120.00203,1030.08789 1138.87708,1020.12608 1154.25698,1000.20215 C1169.63688,980.278221 1177.32672,953.154468 1177.32672,918.830078 C1177.32672,889.437353 1170.49728,864.088974 1156.83821,842.78418 C1143.17914,821.479386 1123.44368,810.827148 1097.63126,810.827148 L1062.46201,810.827148 L1062.46201,1030.08789 Z" id="LND" fill="#FFFFFF"></path>
    </g>
</svg>