<?xml version="1.0" standalone="no"?>
<!DOCTYPE svg PUBLIC "-//W3C//DTD SVG 20010904//EN"
 "http://www.w3.org/TR/2001/REC-SVG-20010904/DTD/svg10.dtd">
<svg version="1.0" xmlns="http://www.w3.org/2000/svg"
 width="820.000000pt" height="820.000000pt" viewBox="0 0 820.000000 820.000000"
 preserveAspectRatio="xMidYMid meet">
<metadata>
Created by potrace 1.11, written by Peter Selinger 2001-2013
</metadata>
<g transform="translate(0.000000,820.000000) scale(0.100000,-0.100000)"
fill="#000000" stroke="none">
<path d="M0 4100 l0 -4100 4100 0 4100 0 0 4100 0 4100 -4100 0 -4100 0 0
-4100z m2215 2413 c311 -73 505 -231 582 -473 24 -76 28 -234 9 -330 -42 -207
-149 -338 -358 -441 -38 -18 -68 -38 -68 -44 0 -5 101 -233 224 -505 l224
-495 -426 -3 c-234 -1 -429 1 -433 5 -5 6 -272 641 -366 871 -4 9 -39 12 -129
12 l-124 0 0 -445 0 -445 -385 0 -385 0 0 1161 0 1160 773 -4 c742 -3 775 -4
862 -24z m1627 -770 c4 -896 0 -855 78 -933 94 -94 320 -106 466 -26 77 43
112 92 124 176 5 36 10 406 10 823 l0 757 305 0 306 0 -3 -857 -3 -858 -28
-90 c-41 -132 -81 -200 -168 -286 -64 -64 -95 -85 -190 -132 -205 -101 -383
-133 -702 -124 -282 8 -446 44 -632 141 -113 58 -230 174 -278 276 -73 156
-70 117 -74 1073 l-4 857 395 0 395 0 3 -797z m2483 565 c88 -128 267 -387
398 -576 l237 -344 0 576 0 576 315 0 315 0 0 -1160 0 -1160 -317 2 -317 3
-420 620 c-232 341 -433 638 -448 660 l-28 40 0 -663 0 -662 -315 0 -315 0 0
1160 0 1160 368 0 367 -1 160 -231z m-4965 -3213 l0 -875 685 0 685 0 0 -285
0 -285 -1075 0 -1075 0 0 1160 0 1160 390 0 390 0 0 -875z m2541 583 c111
-161 291 -419 398 -573 l196 -280 3 573 2 572 315 0 315 0 0 -1160 0 -1160
-318 0 -317 0 -445 658 -445 658 -3 -658 -2 -658 -315 0 -315 0 0 1160 0 1160
364 0 365 0 202 -292z m2804 269 c404 -73 669 -257 829 -577 83 -166 117 -324
116 -550 0 -223 -22 -362 -83 -510 -108 -265 -334 -477 -618 -581 -200 -73
-185 -72 -886 -76 l-633 -4 0 1161 0 1162 593 -5 c488 -3 608 -7 682 -20z"/>
<path d="M1352 5828 l3 -223 140 -3 c245 -5 388 20 454 81 81 75 79 220 -5
299 -58 54 -97 61 -357 66 l-237 4 2 -224z"/>
<path d="M6210 2810 l0 -630 123 0 c180 0 249 23 344 113 106 100 165 237 182
421 23 242 -37 469 -157 598 -93 100 -173 128 -364 128 l-128 0 0 -630z"/>
</g>
</svg>
